<mxfile host="app.diagrams.net" agent="Mozilla/5.0 (Windows NT 10.0; Win64; x64) AppleWebKit/537.36 (KHTML, like Gecko) Chrome/139.0.0.0 Safari/537.36" version="28.1.0">
  <diagram name="Page-1" id="3JU8Kdi7YVTrkMsnLHV1">
    <mxGraphModel dx="4615" dy="4424" grid="1" gridSize="10" guides="1" tooltips="1" connect="1" arrows="1" fold="1" page="1" pageScale="1" pageWidth="2339" pageHeight="3300" math="0" shadow="0">
      <root>
        <mxCell id="0" />
        <mxCell id="1" parent="0" />
        <mxCell id="i0FzcZnS4csEfGver0WR-19" style="edgeStyle=orthogonalEdgeStyle;rounded=1;orthogonalLoop=1;jettySize=auto;html=1;entryX=1;entryY=0.5;entryDx=0;entryDy=0;fillColor=#a20025;strokeColor=#6F0000;" edge="1" parent="1" source="i0FzcZnS4csEfGver0WR-1" target="i0FzcZnS4csEfGver0WR-13">
          <mxGeometry relative="1" as="geometry" />
        </mxCell>
        <mxCell id="i0FzcZnS4csEfGver0WR-33" style="edgeStyle=orthogonalEdgeStyle;rounded=1;orthogonalLoop=1;jettySize=auto;html=1;entryX=0.5;entryY=1;entryDx=0;entryDy=0;fillColor=#a20025;strokeColor=#6F0000;" edge="1" parent="1" source="i0FzcZnS4csEfGver0WR-1" target="i0FzcZnS4csEfGver0WR-24">
          <mxGeometry relative="1" as="geometry" />
        </mxCell>
        <mxCell id="i0FzcZnS4csEfGver0WR-34" style="edgeStyle=orthogonalEdgeStyle;rounded=1;orthogonalLoop=1;jettySize=auto;html=1;exitX=0.25;exitY=0;exitDx=0;exitDy=0;entryX=0.5;entryY=1;entryDx=0;entryDy=0;fillColor=#a20025;strokeColor=#6F0000;" edge="1" parent="1" source="i0FzcZnS4csEfGver0WR-1" target="i0FzcZnS4csEfGver0WR-21">
          <mxGeometry relative="1" as="geometry" />
        </mxCell>
        <mxCell id="i0FzcZnS4csEfGver0WR-35" style="edgeStyle=orthogonalEdgeStyle;rounded=1;orthogonalLoop=1;jettySize=auto;html=1;exitX=0.75;exitY=0;exitDx=0;exitDy=0;entryX=0.5;entryY=1;entryDx=0;entryDy=0;fillColor=#a20025;strokeColor=#6F0000;" edge="1" parent="1" source="i0FzcZnS4csEfGver0WR-1" target="i0FzcZnS4csEfGver0WR-26">
          <mxGeometry relative="1" as="geometry" />
        </mxCell>
        <mxCell id="i0FzcZnS4csEfGver0WR-39" style="edgeStyle=orthogonalEdgeStyle;rounded=1;orthogonalLoop=1;jettySize=auto;html=1;exitX=1;exitY=0.25;exitDx=0;exitDy=0;entryX=0;entryY=0.5;entryDx=0;entryDy=0;fillColor=#a20025;strokeColor=#6F0000;" edge="1" parent="1" source="i0FzcZnS4csEfGver0WR-1" target="i0FzcZnS4csEfGver0WR-36">
          <mxGeometry relative="1" as="geometry">
            <Array as="points">
              <mxPoint x="-1130" y="-2180" />
              <mxPoint x="-1130" y="-2245" />
            </Array>
          </mxGeometry>
        </mxCell>
        <mxCell id="i0FzcZnS4csEfGver0WR-40" style="edgeStyle=orthogonalEdgeStyle;rounded=1;orthogonalLoop=1;jettySize=auto;html=1;exitX=0;exitY=0.25;exitDx=0;exitDy=0;entryX=1;entryY=0.5;entryDx=0;entryDy=0;fillColor=#a20025;strokeColor=#6F0000;" edge="1" parent="1" source="i0FzcZnS4csEfGver0WR-1" target="i0FzcZnS4csEfGver0WR-14">
          <mxGeometry relative="1" as="geometry">
            <Array as="points">
              <mxPoint x="-1370" y="-2180" />
              <mxPoint x="-1370" y="-2245" />
            </Array>
          </mxGeometry>
        </mxCell>
        <mxCell id="i0FzcZnS4csEfGver0WR-1" value="Person" style="rounded=1;whiteSpace=wrap;html=1;fillColor=#e1d5e7;strokeColor=#9673a6;fontFamily=Comic Sans MS;fontSize=15;" vertex="1" parent="1">
          <mxGeometry x="-1310" y="-2195" width="120" height="60" as="geometry" />
        </mxCell>
        <mxCell id="i0FzcZnS4csEfGver0WR-12" style="edgeStyle=orthogonalEdgeStyle;rounded=1;orthogonalLoop=1;jettySize=auto;html=1;entryX=0.5;entryY=1;entryDx=0;entryDy=0;fillColor=#a20025;strokeColor=#6F0000;endArrow=ERmandOne;endFill=0;strokeWidth=2;" edge="1" parent="1" source="i0FzcZnS4csEfGver0WR-2" target="i0FzcZnS4csEfGver0WR-1">
          <mxGeometry relative="1" as="geometry" />
        </mxCell>
        <mxCell id="i0FzcZnS4csEfGver0WR-2" value="" style="triangle;whiteSpace=wrap;html=1;rounded=1;rotation=-90;fillColor=#008a00;strokeColor=#005700;fontColor=#ffffff;fontSize=14;" vertex="1" parent="1">
          <mxGeometry x="-1280" y="-2055" width="60" height="80" as="geometry" />
        </mxCell>
        <mxCell id="i0FzcZnS4csEfGver0WR-9" style="edgeStyle=orthogonalEdgeStyle;rounded=1;orthogonalLoop=1;jettySize=auto;html=1;entryX=0.5;entryY=0;entryDx=0;entryDy=0;fillColor=#a20025;strokeColor=#6F0000;endArrow=ERzeroToOne;endFill=0;strokeWidth=2;" edge="1" parent="1" source="i0FzcZnS4csEfGver0WR-3" target="i0FzcZnS4csEfGver0WR-4">
          <mxGeometry relative="1" as="geometry" />
        </mxCell>
        <mxCell id="i0FzcZnS4csEfGver0WR-10" style="edgeStyle=orthogonalEdgeStyle;rounded=1;orthogonalLoop=1;jettySize=auto;html=1;entryX=0.5;entryY=0;entryDx=0;entryDy=0;fillColor=#a20025;strokeColor=#6F0000;endArrow=ERzeroToOne;endFill=0;strokeWidth=2;" edge="1" parent="1" source="i0FzcZnS4csEfGver0WR-3" target="i0FzcZnS4csEfGver0WR-5">
          <mxGeometry relative="1" as="geometry" />
        </mxCell>
        <mxCell id="i0FzcZnS4csEfGver0WR-3" value="&lt;font style=&quot;font-size: 15px; color: rgb(255, 255, 255);&quot; face=&quot;Comic Sans MS&quot;&gt;IS&lt;/font&gt;" style="text;html=1;align=center;verticalAlign=middle;whiteSpace=wrap;rounded=1;" vertex="1" parent="1">
          <mxGeometry x="-1280" y="-2020" width="60" height="30" as="geometry" />
        </mxCell>
        <mxCell id="i0FzcZnS4csEfGver0WR-42" style="edgeStyle=orthogonalEdgeStyle;rounded=1;orthogonalLoop=1;jettySize=auto;html=1;entryX=1;entryY=0.5;entryDx=0;entryDy=0;fillColor=#a20025;strokeColor=#6F0000;" edge="1" parent="1" source="i0FzcZnS4csEfGver0WR-4" target="i0FzcZnS4csEfGver0WR-41">
          <mxGeometry relative="1" as="geometry" />
        </mxCell>
        <mxCell id="i0FzcZnS4csEfGver0WR-4" value="Patient" style="rounded=1;whiteSpace=wrap;html=1;fillColor=#e1d5e7;strokeColor=#9673a6;fontFamily=Comic Sans MS;fontSize=15;" vertex="1" parent="1">
          <mxGeometry x="-1480" y="-1885" width="120" height="60" as="geometry" />
        </mxCell>
        <mxCell id="i0FzcZnS4csEfGver0WR-44" style="edgeStyle=orthogonalEdgeStyle;rounded=1;orthogonalLoop=1;jettySize=auto;html=1;exitX=1;exitY=0.5;exitDx=0;exitDy=0;entryX=0;entryY=0.5;entryDx=0;entryDy=0;fillColor=#a20025;strokeColor=#6F0000;" edge="1" parent="1" source="i0FzcZnS4csEfGver0WR-5" target="i0FzcZnS4csEfGver0WR-43">
          <mxGeometry relative="1" as="geometry" />
        </mxCell>
        <mxCell id="i0FzcZnS4csEfGver0WR-5" value="Doctor" style="rounded=1;whiteSpace=wrap;html=1;fillColor=#e1d5e7;strokeColor=#9673a6;fontFamily=Comic Sans MS;fontSize=15;" vertex="1" parent="1">
          <mxGeometry x="-1150" y="-1885" width="120" height="60" as="geometry" />
        </mxCell>
        <mxCell id="i0FzcZnS4csEfGver0WR-13" value="&lt;u&gt;ID&lt;/u&gt;" style="ellipse;whiteSpace=wrap;html=1;rounded=1;fillColor=#fff2cc;strokeColor=#d6b656;fontSize=15;fontFamily=Comic Sans MS;" vertex="1" parent="1">
          <mxGeometry x="-1500" y="-2200" width="100" height="70" as="geometry" />
        </mxCell>
        <mxCell id="i0FzcZnS4csEfGver0WR-17" style="edgeStyle=orthogonalEdgeStyle;rounded=1;orthogonalLoop=1;jettySize=auto;html=1;entryX=0.5;entryY=1;entryDx=0;entryDy=0;fillColor=#a20025;strokeColor=#6F0000;" edge="1" parent="1" source="i0FzcZnS4csEfGver0WR-14" target="i0FzcZnS4csEfGver0WR-15">
          <mxGeometry relative="1" as="geometry" />
        </mxCell>
        <mxCell id="i0FzcZnS4csEfGver0WR-18" style="edgeStyle=orthogonalEdgeStyle;rounded=1;orthogonalLoop=1;jettySize=auto;html=1;entryX=0.5;entryY=0;entryDx=0;entryDy=0;fillColor=#a20025;strokeColor=#6F0000;" edge="1" parent="1" source="i0FzcZnS4csEfGver0WR-14" target="i0FzcZnS4csEfGver0WR-16">
          <mxGeometry relative="1" as="geometry" />
        </mxCell>
        <mxCell id="i0FzcZnS4csEfGver0WR-14" value="(FullName)" style="ellipse;whiteSpace=wrap;html=1;rounded=1;fillColor=#fff2cc;strokeColor=#d6b656;fontSize=15;fontFamily=Comic Sans MS;" vertex="1" parent="1">
          <mxGeometry x="-1510" y="-2280" width="100" height="70" as="geometry" />
        </mxCell>
        <mxCell id="i0FzcZnS4csEfGver0WR-15" value="FirstName" style="ellipse;whiteSpace=wrap;html=1;rounded=1;fillColor=#fff2cc;strokeColor=#d6b656;fontSize=15;fontFamily=Comic Sans MS;" vertex="1" parent="1">
          <mxGeometry x="-1620" y="-2340" width="100" height="70" as="geometry" />
        </mxCell>
        <mxCell id="i0FzcZnS4csEfGver0WR-16" value="LastName" style="ellipse;whiteSpace=wrap;html=1;rounded=1;fillColor=#fff2cc;strokeColor=#d6b656;fontSize=15;fontFamily=Comic Sans MS;" vertex="1" parent="1">
          <mxGeometry x="-1620" y="-2220" width="100" height="70" as="geometry" />
        </mxCell>
        <mxCell id="i0FzcZnS4csEfGver0WR-21" value="DateOfBirth" style="ellipse;whiteSpace=wrap;html=1;rounded=1;fillColor=#fff2cc;strokeColor=#d6b656;fontSize=15;fontFamily=Comic Sans MS;" vertex="1" parent="1">
          <mxGeometry x="-1410" y="-2340" width="100" height="70" as="geometry" />
        </mxCell>
        <mxCell id="i0FzcZnS4csEfGver0WR-24" value="Gender" style="ellipse;whiteSpace=wrap;html=1;rounded=1;fillColor=#fff2cc;strokeColor=#d6b656;fontSize=15;fontFamily=Comic Sans MS;" vertex="1" parent="1">
          <mxGeometry x="-1300" y="-2340" width="100" height="70" as="geometry" />
        </mxCell>
        <mxCell id="i0FzcZnS4csEfGver0WR-26" value="Email" style="ellipse;whiteSpace=wrap;html=1;rounded=1;fillColor=#fff2cc;strokeColor=#d6b656;fontSize=15;fontFamily=Comic Sans MS;" vertex="1" parent="1">
          <mxGeometry x="-1190" y="-2340" width="100" height="70" as="geometry" />
        </mxCell>
        <mxCell id="i0FzcZnS4csEfGver0WR-29" value="" style="ellipse;whiteSpace=wrap;html=1;rounded=1;fillColor=#fff2cc;strokeColor=#d6b656;fontSize=15;fontFamily=Comic Sans MS;" vertex="1" parent="1">
          <mxGeometry x="-1100" y="-2205" width="100" height="70" as="geometry" />
        </mxCell>
        <mxCell id="i0FzcZnS4csEfGver0WR-30" value="Phone" style="ellipse;whiteSpace=wrap;html=1;rounded=1;fillColor=#fff2cc;strokeColor=#d6b656;fontSize=15;fontFamily=Comic Sans MS;" vertex="1" parent="1">
          <mxGeometry x="-1095.98" y="-2202.19" width="91.97" height="64.38" as="geometry" />
        </mxCell>
        <mxCell id="i0FzcZnS4csEfGver0WR-32" style="edgeStyle=orthogonalEdgeStyle;rounded=1;orthogonalLoop=1;jettySize=auto;html=1;entryX=0;entryY=0.571;entryDx=0;entryDy=0;entryPerimeter=0;fillColor=#a20025;strokeColor=#6F0000;" edge="1" parent="1" source="i0FzcZnS4csEfGver0WR-1" target="i0FzcZnS4csEfGver0WR-29">
          <mxGeometry relative="1" as="geometry" />
        </mxCell>
        <mxCell id="i0FzcZnS4csEfGver0WR-36" value="Address" style="ellipse;whiteSpace=wrap;html=1;rounded=1;fillColor=#fff2cc;strokeColor=#d6b656;fontSize=15;fontFamily=Comic Sans MS;" vertex="1" parent="1">
          <mxGeometry x="-1104.01" y="-2280" width="100" height="70" as="geometry" />
        </mxCell>
        <mxCell id="i0FzcZnS4csEfGver0WR-41" value="&lt;u&gt;Patient&lt;/u&gt;&lt;u style=&quot;background-color: transparent; color: light-dark(rgb(0, 0, 0), rgb(255, 255, 255));&quot;&gt;ID&lt;/u&gt;" style="ellipse;whiteSpace=wrap;html=1;rounded=1;fillColor=#fff2cc;strokeColor=#d6b656;fontSize=15;fontFamily=Comic Sans MS;" vertex="1" parent="1">
          <mxGeometry x="-1640" y="-1890" width="100" height="70" as="geometry" />
        </mxCell>
        <mxCell id="i0FzcZnS4csEfGver0WR-43" value="&lt;u&gt;DoctorID&lt;/u&gt;" style="ellipse;whiteSpace=wrap;html=1;rounded=1;fillColor=#fff2cc;strokeColor=#d6b656;fontSize=15;fontFamily=Comic Sans MS;" vertex="1" parent="1">
          <mxGeometry x="-970" y="-1890" width="100" height="70" as="geometry" />
        </mxCell>
        <mxCell id="i0FzcZnS4csEfGver0WR-66" style="edgeStyle=orthogonalEdgeStyle;rounded=1;orthogonalLoop=1;jettySize=auto;html=1;exitX=0.25;exitY=0;exitDx=0;exitDy=0;fillColor=#a20025;strokeColor=#6F0000;" edge="1" parent="1" source="i0FzcZnS4csEfGver0WR-45" target="i0FzcZnS4csEfGver0WR-60">
          <mxGeometry relative="1" as="geometry" />
        </mxCell>
        <mxCell id="i0FzcZnS4csEfGver0WR-67" style="edgeStyle=orthogonalEdgeStyle;rounded=1;orthogonalLoop=1;jettySize=auto;html=1;exitX=0.75;exitY=0;exitDx=0;exitDy=0;entryX=0.5;entryY=1;entryDx=0;entryDy=0;fillColor=#a20025;strokeColor=#6F0000;" edge="1" parent="1" source="i0FzcZnS4csEfGver0WR-45" target="i0FzcZnS4csEfGver0WR-62">
          <mxGeometry relative="1" as="geometry" />
        </mxCell>
        <mxCell id="i0FzcZnS4csEfGver0WR-69" style="edgeStyle=orthogonalEdgeStyle;rounded=1;orthogonalLoop=1;jettySize=auto;html=1;exitX=0.25;exitY=1;exitDx=0;exitDy=0;entryX=1;entryY=0.5;entryDx=0;entryDy=0;fillColor=#a20025;strokeColor=#6F0000;" edge="1" parent="1" source="i0FzcZnS4csEfGver0WR-45" target="i0FzcZnS4csEfGver0WR-68">
          <mxGeometry relative="1" as="geometry" />
        </mxCell>
        <mxCell id="i0FzcZnS4csEfGver0WR-45" value="Appointment" style="rounded=1;whiteSpace=wrap;html=1;fillColor=#e1d5e7;strokeColor=#9673a6;fontFamily=Comic Sans MS;fontSize=15;" vertex="1" parent="1">
          <mxGeometry x="-1310" y="-1630" width="120" height="60" as="geometry" />
        </mxCell>
        <mxCell id="i0FzcZnS4csEfGver0WR-51" style="edgeStyle=orthogonalEdgeStyle;rounded=1;orthogonalLoop=1;jettySize=auto;html=1;entryX=0.5;entryY=1;entryDx=0;entryDy=0;strokeWidth=2;fillColor=#a20025;strokeColor=#6F0000;endArrow=ERmandOne;endFill=0;" edge="1" parent="1" source="i0FzcZnS4csEfGver0WR-47" target="i0FzcZnS4csEfGver0WR-4">
          <mxGeometry relative="1" as="geometry" />
        </mxCell>
        <mxCell id="i0FzcZnS4csEfGver0WR-58" style="edgeStyle=orthogonalEdgeStyle;rounded=1;orthogonalLoop=1;jettySize=auto;html=1;entryX=0;entryY=0.5;entryDx=0;entryDy=0;exitX=0.5;exitY=1;exitDx=0;exitDy=0;strokeWidth=2;fillColor=#a20025;strokeColor=#6F0000;endArrow=ERzeroToMany;endFill=0;" edge="1" parent="1" source="i0FzcZnS4csEfGver0WR-47" target="i0FzcZnS4csEfGver0WR-45">
          <mxGeometry relative="1" as="geometry" />
        </mxCell>
        <mxCell id="i0FzcZnS4csEfGver0WR-47" value="Booking" style="rhombus;whiteSpace=wrap;html=1;fontSize=15;fontFamily=Comic Sans MS;fillColor=#6a00ff;strokeColor=#3700CC;rounded=1;fontColor=#ffffff;" vertex="1" parent="1">
          <mxGeometry x="-1460" y="-1770" width="80" height="80" as="geometry" />
        </mxCell>
        <mxCell id="i0FzcZnS4csEfGver0WR-57" style="edgeStyle=orthogonalEdgeStyle;rounded=1;orthogonalLoop=1;jettySize=auto;html=1;entryX=0.5;entryY=1;entryDx=0;entryDy=0;strokeWidth=2;fillColor=#a20025;strokeColor=#6F0000;endArrow=ERmandOne;endFill=0;" edge="1" parent="1" source="i0FzcZnS4csEfGver0WR-53" target="i0FzcZnS4csEfGver0WR-5">
          <mxGeometry relative="1" as="geometry" />
        </mxCell>
        <mxCell id="i0FzcZnS4csEfGver0WR-59" style="edgeStyle=orthogonalEdgeStyle;rounded=1;orthogonalLoop=1;jettySize=auto;html=1;entryX=1;entryY=0.5;entryDx=0;entryDy=0;exitX=0.5;exitY=1;exitDx=0;exitDy=0;strokeWidth=2;fillColor=#a20025;strokeColor=#6F0000;endArrow=ERzeroToMany;endFill=0;" edge="1" parent="1" source="i0FzcZnS4csEfGver0WR-53" target="i0FzcZnS4csEfGver0WR-45">
          <mxGeometry relative="1" as="geometry" />
        </mxCell>
        <mxCell id="i0FzcZnS4csEfGver0WR-53" value="Receive" style="rhombus;whiteSpace=wrap;html=1;fontSize=15;fontFamily=Comic Sans MS;fillColor=#6a00ff;strokeColor=#3700CC;rounded=1;fontColor=#ffffff;" vertex="1" parent="1">
          <mxGeometry x="-1130" y="-1770" width="80" height="80" as="geometry" />
        </mxCell>
        <mxCell id="i0FzcZnS4csEfGver0WR-60" value="&lt;u&gt;&lt;font style=&quot;font-size: 12px;&quot;&gt;AppointmentID&lt;/font&gt;&lt;/u&gt;" style="ellipse;whiteSpace=wrap;html=1;rounded=1;fillColor=#fff2cc;strokeColor=#d6b656;fontSize=15;fontFamily=Comic Sans MS;" vertex="1" parent="1">
          <mxGeometry x="-1370" y="-1740" width="100" height="70" as="geometry" />
        </mxCell>
        <mxCell id="i0FzcZnS4csEfGver0WR-62" value="&lt;font&gt;DateTime&lt;/font&gt;" style="ellipse;whiteSpace=wrap;html=1;rounded=1;fillColor=#fff2cc;strokeColor=#d6b656;fontSize=15;fontFamily=Comic Sans MS;" vertex="1" parent="1">
          <mxGeometry x="-1230" y="-1740" width="100" height="70" as="geometry" />
        </mxCell>
        <mxCell id="i0FzcZnS4csEfGver0WR-68" value="&lt;font&gt;Status&lt;/font&gt;" style="ellipse;whiteSpace=wrap;html=1;rounded=1;fillColor=#fff2cc;strokeColor=#d6b656;fontSize=15;fontFamily=Comic Sans MS;" vertex="1" parent="1">
          <mxGeometry x="-1430" y="-1560" width="100" height="70" as="geometry" />
        </mxCell>
        <mxCell id="i0FzcZnS4csEfGver0WR-83" style="edgeStyle=orthogonalEdgeStyle;rounded=1;orthogonalLoop=1;jettySize=auto;html=1;exitX=0;exitY=0.75;exitDx=0;exitDy=0;entryX=0.5;entryY=0;entryDx=0;entryDy=0;fillColor=#a20025;strokeColor=#6F0000;" edge="1" parent="1" source="i0FzcZnS4csEfGver0WR-70" target="i0FzcZnS4csEfGver0WR-77">
          <mxGeometry relative="1" as="geometry" />
        </mxCell>
        <mxCell id="i0FzcZnS4csEfGver0WR-84" style="edgeStyle=orthogonalEdgeStyle;rounded=1;orthogonalLoop=1;jettySize=auto;html=1;exitX=1;exitY=0.75;exitDx=0;exitDy=0;entryX=0.5;entryY=0;entryDx=0;entryDy=0;fillColor=#a20025;strokeColor=#6F0000;" edge="1" parent="1" source="i0FzcZnS4csEfGver0WR-70" target="i0FzcZnS4csEfGver0WR-79">
          <mxGeometry relative="1" as="geometry" />
        </mxCell>
        <mxCell id="i0FzcZnS4csEfGver0WR-86" style="edgeStyle=orthogonalEdgeStyle;rounded=1;orthogonalLoop=1;jettySize=auto;html=1;exitX=0.25;exitY=1;exitDx=0;exitDy=0;entryX=1;entryY=0.5;entryDx=0;entryDy=0;fillColor=#a20025;strokeColor=#6F0000;" edge="1" parent="1" source="i0FzcZnS4csEfGver0WR-70" target="i0FzcZnS4csEfGver0WR-80">
          <mxGeometry relative="1" as="geometry" />
        </mxCell>
        <mxCell id="i0FzcZnS4csEfGver0WR-87" style="edgeStyle=orthogonalEdgeStyle;rounded=1;orthogonalLoop=1;jettySize=auto;html=1;entryX=0.5;entryY=0;entryDx=0;entryDy=0;fillColor=#a20025;strokeColor=#6F0000;" edge="1" parent="1" source="i0FzcZnS4csEfGver0WR-70" target="i0FzcZnS4csEfGver0WR-81">
          <mxGeometry relative="1" as="geometry">
            <Array as="points">
              <mxPoint x="-1450" y="-1240" />
              <mxPoint x="-1450" y="-1140" />
            </Array>
          </mxGeometry>
        </mxCell>
        <mxCell id="i0FzcZnS4csEfGver0WR-70" value="Medical Record" style="rounded=1;whiteSpace=wrap;html=1;fillColor=#e1d5e7;strokeColor=#9673a6;fontFamily=Comic Sans MS;fontSize=15;" vertex="1" parent="1">
          <mxGeometry x="-1310" y="-1280" width="120" height="60" as="geometry" />
        </mxCell>
        <mxCell id="i0FzcZnS4csEfGver0WR-73" style="edgeStyle=orthogonalEdgeStyle;rounded=1;orthogonalLoop=1;jettySize=auto;html=1;entryX=0.5;entryY=0;entryDx=0;entryDy=0;strokeWidth=2;fillColor=#a20025;strokeColor=#6F0000;endArrow=ERmandOne;endFill=0;" edge="1" parent="1" source="i0FzcZnS4csEfGver0WR-71" target="i0FzcZnS4csEfGver0WR-70">
          <mxGeometry relative="1" as="geometry" />
        </mxCell>
        <mxCell id="i0FzcZnS4csEfGver0WR-74" style="edgeStyle=orthogonalEdgeStyle;rounded=1;orthogonalLoop=1;jettySize=auto;html=1;entryX=0.5;entryY=1;entryDx=0;entryDy=0;strokeWidth=2;fillColor=#a20025;strokeColor=#6F0000;endArrow=ERmandOne;endFill=0;" edge="1" parent="1" source="i0FzcZnS4csEfGver0WR-71" target="i0FzcZnS4csEfGver0WR-45">
          <mxGeometry relative="1" as="geometry" />
        </mxCell>
        <mxCell id="i0FzcZnS4csEfGver0WR-71" value="has" style="rhombus;whiteSpace=wrap;html=1;fontSize=15;fontFamily=Comic Sans MS;fillColor=#6a00ff;strokeColor=#3700CC;rounded=1;fontColor=#ffffff;" vertex="1" parent="1">
          <mxGeometry x="-1290" y="-1470" width="80" height="80" as="geometry" />
        </mxCell>
        <mxCell id="i0FzcZnS4csEfGver0WR-77" value="&lt;u&gt;&lt;font&gt;MRID&lt;/font&gt;&lt;/u&gt;" style="ellipse;whiteSpace=wrap;html=1;rounded=1;fillColor=#fff2cc;strokeColor=#d6b656;fontSize=15;fontFamily=Comic Sans MS;" vertex="1" parent="1">
          <mxGeometry x="-1410" y="-1190" width="100" height="70" as="geometry" />
        </mxCell>
        <mxCell id="i0FzcZnS4csEfGver0WR-79" value="Description" style="ellipse;whiteSpace=wrap;html=1;rounded=1;fillColor=#fff2cc;strokeColor=#d6b656;fontSize=15;fontFamily=Comic Sans MS;" vertex="1" parent="1">
          <mxGeometry x="-1195.98" y="-1190" width="100" height="70" as="geometry" />
        </mxCell>
        <mxCell id="i0FzcZnS4csEfGver0WR-80" value="Diagnosis" style="ellipse;whiteSpace=wrap;html=1;rounded=1;fillColor=#fff2cc;strokeColor=#d6b656;fontSize=15;fontFamily=Comic Sans MS;" vertex="1" parent="1">
          <mxGeometry x="-1410" y="-1100" width="100" height="70" as="geometry" />
        </mxCell>
        <mxCell id="i0FzcZnS4csEfGver0WR-81" value="Medications" style="ellipse;whiteSpace=wrap;html=1;rounded=1;fillColor=#fff2cc;strokeColor=#d6b656;fontSize=15;fontFamily=Comic Sans MS;" vertex="1" parent="1">
          <mxGeometry x="-1501" y="-1140" width="100" height="70" as="geometry" />
        </mxCell>
        <mxCell id="i0FzcZnS4csEfGver0WR-82" value="ADDNotes" style="ellipse;whiteSpace=wrap;html=1;rounded=1;fillColor=#fff2cc;strokeColor=#d6b656;fontSize=15;fontFamily=Comic Sans MS;" vertex="1" parent="1">
          <mxGeometry x="-1190" y="-1100" width="100" height="70" as="geometry" />
        </mxCell>
        <mxCell id="i0FzcZnS4csEfGver0WR-85" style="edgeStyle=orthogonalEdgeStyle;rounded=1;orthogonalLoop=1;jettySize=auto;html=1;exitX=0.75;exitY=1;exitDx=0;exitDy=0;entryX=0;entryY=0.5;entryDx=0;entryDy=0;fillColor=#a20025;strokeColor=#6F0000;" edge="1" parent="1" source="i0FzcZnS4csEfGver0WR-70" target="i0FzcZnS4csEfGver0WR-82">
          <mxGeometry relative="1" as="geometry" />
        </mxCell>
        <mxCell id="i0FzcZnS4csEfGver0WR-93" style="edgeStyle=orthogonalEdgeStyle;rounded=1;orthogonalLoop=1;jettySize=auto;html=1;entryX=1;entryY=0.5;entryDx=0;entryDy=0;exitX=0.5;exitY=1;exitDx=0;exitDy=0;fillColor=#a20025;strokeColor=#6F0000;strokeWidth=2;endArrow=ERoneToMany;endFill=0;" edge="1" parent="1" source="i0FzcZnS4csEfGver0WR-89" target="i0FzcZnS4csEfGver0WR-70">
          <mxGeometry relative="1" as="geometry" />
        </mxCell>
        <mxCell id="i0FzcZnS4csEfGver0WR-89" value="Do" style="rhombus;whiteSpace=wrap;html=1;fontSize=15;fontFamily=Comic Sans MS;fillColor=#6a00ff;strokeColor=#3700CC;rounded=1;fontColor=#ffffff;" vertex="1" parent="1">
          <mxGeometry x="-1088" y="-1470" width="80" height="80" as="geometry" />
        </mxCell>
        <mxCell id="i0FzcZnS4csEfGver0WR-91" style="edgeStyle=orthogonalEdgeStyle;rounded=1;orthogonalLoop=1;jettySize=auto;html=1;entryX=0.861;entryY=0.95;entryDx=0;entryDy=0;entryPerimeter=0;fillColor=#a20025;strokeColor=#6F0000;strokeWidth=2;endArrow=ERmandOne;endFill=0;" edge="1" parent="1" source="i0FzcZnS4csEfGver0WR-89" target="i0FzcZnS4csEfGver0WR-5">
          <mxGeometry relative="1" as="geometry" />
        </mxCell>
        <mxCell id="i0FzcZnS4csEfGver0WR-95" style="edgeStyle=orthogonalEdgeStyle;rounded=1;orthogonalLoop=1;jettySize=auto;html=1;entryX=0.151;entryY=1.002;entryDx=0;entryDy=0;entryPerimeter=0;fillColor=#a20025;strokeColor=#6F0000;strokeWidth=2;endArrow=ERmandOne;endFill=0;" edge="1" parent="1" source="i0FzcZnS4csEfGver0WR-94" target="i0FzcZnS4csEfGver0WR-4">
          <mxGeometry relative="1" as="geometry" />
        </mxCell>
        <mxCell id="i0FzcZnS4csEfGver0WR-96" style="edgeStyle=orthogonalEdgeStyle;rounded=1;orthogonalLoop=1;jettySize=auto;html=1;entryX=0;entryY=0.5;entryDx=0;entryDy=0;exitX=0.5;exitY=1;exitDx=0;exitDy=0;fillColor=#a20025;strokeColor=#6F0000;strokeWidth=2;endArrow=ERoneToMany;endFill=0;" edge="1" parent="1" source="i0FzcZnS4csEfGver0WR-94" target="i0FzcZnS4csEfGver0WR-70">
          <mxGeometry relative="1" as="geometry" />
        </mxCell>
        <mxCell id="i0FzcZnS4csEfGver0WR-94" value="has" style="rhombus;whiteSpace=wrap;html=1;fontSize=15;fontFamily=Comic Sans MS;fillColor=#6a00ff;strokeColor=#3700CC;rounded=1;fontColor=#ffffff;" vertex="1" parent="1">
          <mxGeometry x="-1501" y="-1470" width="80" height="80" as="geometry" />
        </mxCell>
        <mxCell id="i0FzcZnS4csEfGver0WR-112" style="edgeStyle=orthogonalEdgeStyle;rounded=1;orthogonalLoop=1;jettySize=auto;html=1;entryX=1;entryY=0.5;entryDx=0;entryDy=0;fillColor=#a20025;strokeColor=#6F0000;" edge="1" parent="1" source="i0FzcZnS4csEfGver0WR-99" target="i0FzcZnS4csEfGver0WR-104">
          <mxGeometry relative="1" as="geometry" />
        </mxCell>
        <mxCell id="i0FzcZnS4csEfGver0WR-113" style="edgeStyle=orthogonalEdgeStyle;rounded=1;orthogonalLoop=1;jettySize=auto;html=1;entryX=0;entryY=0.5;entryDx=0;entryDy=0;fillColor=#a20025;strokeColor=#6F0000;" edge="1" parent="1" source="i0FzcZnS4csEfGver0WR-99" target="i0FzcZnS4csEfGver0WR-110">
          <mxGeometry relative="1" as="geometry" />
        </mxCell>
        <mxCell id="i0FzcZnS4csEfGver0WR-117" style="edgeStyle=orthogonalEdgeStyle;rounded=1;orthogonalLoop=1;jettySize=auto;html=1;fillColor=#a20025;strokeColor=#6F0000;" edge="1" parent="1" source="i0FzcZnS4csEfGver0WR-99" target="i0FzcZnS4csEfGver0WR-107">
          <mxGeometry relative="1" as="geometry" />
        </mxCell>
        <mxCell id="i0FzcZnS4csEfGver0WR-118" style="edgeStyle=orthogonalEdgeStyle;rounded=1;orthogonalLoop=1;jettySize=auto;html=1;entryX=0.5;entryY=0;entryDx=0;entryDy=0;fillColor=#a20025;strokeColor=#6F0000;" edge="1" parent="1" source="i0FzcZnS4csEfGver0WR-99" target="i0FzcZnS4csEfGver0WR-108">
          <mxGeometry relative="1" as="geometry" />
        </mxCell>
        <mxCell id="i0FzcZnS4csEfGver0WR-121" style="edgeStyle=orthogonalEdgeStyle;rounded=1;orthogonalLoop=1;jettySize=auto;html=1;exitX=1;exitY=0.75;exitDx=0;exitDy=0;entryX=0;entryY=0.5;entryDx=0;entryDy=0;fillColor=#a20025;strokeColor=#6F0000;" edge="1" parent="1" source="i0FzcZnS4csEfGver0WR-99" target="i0FzcZnS4csEfGver0WR-109">
          <mxGeometry relative="1" as="geometry" />
        </mxCell>
        <mxCell id="i0FzcZnS4csEfGver0WR-123" style="edgeStyle=orthogonalEdgeStyle;rounded=1;orthogonalLoop=1;jettySize=auto;html=1;exitX=0;exitY=0.75;exitDx=0;exitDy=0;entryX=1;entryY=0.5;entryDx=0;entryDy=0;fillColor=#a20025;strokeColor=#6F0000;" edge="1" parent="1" source="i0FzcZnS4csEfGver0WR-99" target="i0FzcZnS4csEfGver0WR-105">
          <mxGeometry relative="1" as="geometry" />
        </mxCell>
        <mxCell id="i0FzcZnS4csEfGver0WR-124" style="edgeStyle=orthogonalEdgeStyle;rounded=1;orthogonalLoop=1;jettySize=auto;html=1;exitX=0.75;exitY=0;exitDx=0;exitDy=0;entryX=0;entryY=0.5;entryDx=0;entryDy=0;" edge="1" parent="1" source="i0FzcZnS4csEfGver0WR-99" target="i0FzcZnS4csEfGver0WR-111">
          <mxGeometry relative="1" as="geometry" />
        </mxCell>
        <mxCell id="i0FzcZnS4csEfGver0WR-99" value="Prescription" style="rounded=1;whiteSpace=wrap;html=1;fillColor=#e1d5e7;strokeColor=#9673a6;fontFamily=Comic Sans MS;fontSize=15;" vertex="1" parent="1">
          <mxGeometry x="-1310" y="-810" width="120" height="60" as="geometry" />
        </mxCell>
        <mxCell id="i0FzcZnS4csEfGver0WR-102" style="edgeStyle=orthogonalEdgeStyle;rounded=1;orthogonalLoop=1;jettySize=auto;html=1;entryX=0.5;entryY=0;entryDx=0;entryDy=0;fillColor=#a20025;strokeColor=#6F0000;strokeWidth=2;endArrow=ERzeroToOne;endFill=0;" edge="1" parent="1" source="i0FzcZnS4csEfGver0WR-100" target="i0FzcZnS4csEfGver0WR-99">
          <mxGeometry relative="1" as="geometry" />
        </mxCell>
        <mxCell id="i0FzcZnS4csEfGver0WR-103" style="edgeStyle=orthogonalEdgeStyle;rounded=1;orthogonalLoop=1;jettySize=auto;html=1;fillColor=#a20025;strokeColor=#6F0000;strokeWidth=2;endArrow=ERmandOne;endFill=0;" edge="1" parent="1" source="i0FzcZnS4csEfGver0WR-100" target="i0FzcZnS4csEfGver0WR-70">
          <mxGeometry relative="1" as="geometry" />
        </mxCell>
        <mxCell id="i0FzcZnS4csEfGver0WR-100" value="has" style="rhombus;whiteSpace=wrap;html=1;fontSize=15;fontFamily=Comic Sans MS;fillColor=#6a00ff;strokeColor=#3700CC;rounded=1;fontColor=#ffffff;" vertex="1" parent="1">
          <mxGeometry x="-1290" y="-1040" width="80" height="80" as="geometry" />
        </mxCell>
        <mxCell id="i0FzcZnS4csEfGver0WR-104" value="&lt;u&gt;ID&lt;/u&gt;" style="ellipse;whiteSpace=wrap;html=1;rounded=1;fillColor=#fff2cc;strokeColor=#d6b656;fontSize=15;fontFamily=Comic Sans MS;" vertex="1" parent="1">
          <mxGeometry x="-1470" y="-815" width="100" height="70" as="geometry" />
        </mxCell>
        <mxCell id="i0FzcZnS4csEfGver0WR-105" value="" style="ellipse;whiteSpace=wrap;html=1;rounded=1;fillColor=#fff2cc;strokeColor=#d6b656;fontSize=15;fontFamily=Comic Sans MS;" vertex="1" parent="1">
          <mxGeometry x="-1460" y="-730" width="100" height="70" as="geometry" />
        </mxCell>
        <mxCell id="i0FzcZnS4csEfGver0WR-106" value="&lt;font style=&quot;font-size: 13px;&quot;&gt;medication name&lt;/font&gt;" style="ellipse;whiteSpace=wrap;html=1;rounded=1;fillColor=#fff2cc;strokeColor=#d6b656;fontSize=15;fontFamily=Comic Sans MS;" vertex="1" parent="1">
          <mxGeometry x="-1456.4099999999999" y="-725.9299999999998" width="92.81" height="61.87" as="geometry" />
        </mxCell>
        <mxCell id="i0FzcZnS4csEfGver0WR-107" value="dosage" style="ellipse;whiteSpace=wrap;html=1;rounded=1;fillColor=#fff2cc;strokeColor=#d6b656;fontSize=15;fontFamily=Comic Sans MS;" vertex="1" parent="1">
          <mxGeometry x="-1360" y="-670" width="100" height="70" as="geometry" />
        </mxCell>
        <mxCell id="i0FzcZnS4csEfGver0WR-108" value="frequency" style="ellipse;whiteSpace=wrap;html=1;rounded=1;fillColor=#fff2cc;strokeColor=#d6b656;fontSize=15;fontFamily=Comic Sans MS;" vertex="1" parent="1">
          <mxGeometry x="-1240" y="-670" width="100" height="70" as="geometry" />
        </mxCell>
        <mxCell id="i0FzcZnS4csEfGver0WR-109" value="startDate" style="ellipse;whiteSpace=wrap;html=1;rounded=1;fillColor=#fff2cc;strokeColor=#d6b656;fontSize=15;fontFamily=Comic Sans MS;" vertex="1" parent="1">
          <mxGeometry x="-1140" y="-730" width="100" height="70" as="geometry" />
        </mxCell>
        <mxCell id="i0FzcZnS4csEfGver0WR-110" value="endDate" style="ellipse;whiteSpace=wrap;html=1;rounded=1;fillColor=#fff2cc;strokeColor=#d6b656;fontSize=15;fontFamily=Comic Sans MS;" vertex="1" parent="1">
          <mxGeometry x="-1130" y="-815" width="100" height="70" as="geometry" />
        </mxCell>
        <mxCell id="i0FzcZnS4csEfGver0WR-111" value="instructions" style="ellipse;whiteSpace=wrap;html=1;rounded=1;fillColor=#fff2cc;strokeColor=#d6b656;fontSize=15;fontFamily=Comic Sans MS;" vertex="1" parent="1">
          <mxGeometry x="-1195.98" y="-900" width="100" height="70" as="geometry" />
        </mxCell>
        <mxCell id="i0FzcZnS4csEfGver0WR-131" style="edgeStyle=orthogonalEdgeStyle;rounded=1;orthogonalLoop=1;jettySize=auto;html=1;entryX=0.5;entryY=0;entryDx=0;entryDy=0;fillColor=#a20025;strokeColor=#6F0000;" edge="1" parent="1" source="i0FzcZnS4csEfGver0WR-125" target="i0FzcZnS4csEfGver0WR-130">
          <mxGeometry relative="1" as="geometry" />
        </mxCell>
        <mxCell id="i0FzcZnS4csEfGver0WR-133" style="edgeStyle=orthogonalEdgeStyle;rounded=1;orthogonalLoop=1;jettySize=auto;html=1;exitX=0.75;exitY=1;exitDx=0;exitDy=0;entryX=0;entryY=0.5;entryDx=0;entryDy=0;fillColor=#a20025;strokeColor=#6F0000;" edge="1" parent="1" source="i0FzcZnS4csEfGver0WR-125" target="i0FzcZnS4csEfGver0WR-132">
          <mxGeometry relative="1" as="geometry" />
        </mxCell>
        <mxCell id="i0FzcZnS4csEfGver0WR-135" style="edgeStyle=orthogonalEdgeStyle;rounded=1;orthogonalLoop=1;jettySize=auto;html=1;entryX=0;entryY=0.5;entryDx=0;entryDy=0;fillColor=#a20025;strokeColor=#6F0000;" edge="1" parent="1" source="i0FzcZnS4csEfGver0WR-125" target="i0FzcZnS4csEfGver0WR-134">
          <mxGeometry relative="1" as="geometry" />
        </mxCell>
        <mxCell id="i0FzcZnS4csEfGver0WR-137" style="edgeStyle=orthogonalEdgeStyle;rounded=1;orthogonalLoop=1;jettySize=auto;html=1;exitX=0.75;exitY=0;exitDx=0;exitDy=0;entryX=0;entryY=0.5;entryDx=0;entryDy=0;fillColor=#a20025;strokeColor=#6F0000;" edge="1" parent="1" source="i0FzcZnS4csEfGver0WR-125" target="i0FzcZnS4csEfGver0WR-136">
          <mxGeometry relative="1" as="geometry" />
        </mxCell>
        <mxCell id="i0FzcZnS4csEfGver0WR-125" value="Payment" style="rounded=1;whiteSpace=wrap;html=1;fillColor=#e1d5e7;strokeColor=#9673a6;fontFamily=Comic Sans MS;fontSize=15;" vertex="1" parent="1">
          <mxGeometry x="-780" y="-1560" width="120" height="60" as="geometry" />
        </mxCell>
        <mxCell id="i0FzcZnS4csEfGver0WR-128" style="edgeStyle=orthogonalEdgeStyle;rounded=1;orthogonalLoop=1;jettySize=auto;html=1;entryX=0.75;entryY=1;entryDx=0;entryDy=0;fillColor=#a20025;strokeColor=#6F0000;strokeWidth=2;endArrow=ERmandOne;endFill=0;" edge="1" parent="1" source="i0FzcZnS4csEfGver0WR-126" target="i0FzcZnS4csEfGver0WR-45">
          <mxGeometry relative="1" as="geometry" />
        </mxCell>
        <mxCell id="i0FzcZnS4csEfGver0WR-129" style="edgeStyle=orthogonalEdgeStyle;rounded=1;orthogonalLoop=1;jettySize=auto;html=1;entryX=0;entryY=0.5;entryDx=0;entryDy=0;fillColor=#a20025;strokeColor=#6F0000;strokeWidth=2;endArrow=ERmandOne;endFill=0;" edge="1" parent="1" source="i0FzcZnS4csEfGver0WR-126" target="i0FzcZnS4csEfGver0WR-125">
          <mxGeometry relative="1" as="geometry" />
        </mxCell>
        <mxCell id="i0FzcZnS4csEfGver0WR-126" value="pay" style="rhombus;whiteSpace=wrap;html=1;fontSize=15;fontFamily=Comic Sans MS;fillColor=#6a00ff;strokeColor=#3700CC;rounded=1;fontColor=#ffffff;" vertex="1" parent="1">
          <mxGeometry x="-970" y="-1570" width="80" height="80" as="geometry" />
        </mxCell>
        <mxCell id="i0FzcZnS4csEfGver0WR-130" value="&lt;u&gt;&lt;font&gt;ID&lt;/font&gt;&lt;/u&gt;" style="ellipse;whiteSpace=wrap;html=1;rounded=1;fillColor=#fff2cc;strokeColor=#d6b656;fontSize=15;fontFamily=Comic Sans MS;" vertex="1" parent="1">
          <mxGeometry x="-770" y="-1440" width="100" height="70" as="geometry" />
        </mxCell>
        <mxCell id="i0FzcZnS4csEfGver0WR-132" value="&lt;font style=&quot;&quot;&gt;Method&lt;/font&gt;" style="ellipse;whiteSpace=wrap;html=1;rounded=1;fillColor=#fff2cc;strokeColor=#d6b656;fontSize=15;fontFamily=Comic Sans MS;" vertex="1" parent="1">
          <mxGeometry x="-650" y="-1490" width="100" height="70" as="geometry" />
        </mxCell>
        <mxCell id="i0FzcZnS4csEfGver0WR-134" value="&lt;font style=&quot;&quot;&gt;Amount&lt;/font&gt;" style="ellipse;whiteSpace=wrap;html=1;rounded=1;fillColor=#fff2cc;strokeColor=#d6b656;fontSize=15;fontFamily=Comic Sans MS;" vertex="1" parent="1">
          <mxGeometry x="-610" y="-1565" width="100" height="70" as="geometry" />
        </mxCell>
        <mxCell id="i0FzcZnS4csEfGver0WR-136" value="&lt;font style=&quot;&quot;&gt;ADDNotes&lt;/font&gt;" style="ellipse;whiteSpace=wrap;html=1;rounded=1;fillColor=#fff2cc;strokeColor=#d6b656;fontSize=15;fontFamily=Comic Sans MS;" vertex="1" parent="1">
          <mxGeometry x="-650" y="-1640" width="100" height="70" as="geometry" />
        </mxCell>
        <mxCell id="i0FzcZnS4csEfGver0WR-138" value="&lt;font style=&quot;font-size: 30px;&quot; face=&quot;Comic Sans MS&quot;&gt;Simple Clinic&lt;/font&gt;" style="text;html=1;align=center;verticalAlign=middle;whiteSpace=wrap;rounded=0;" vertex="1" parent="1">
          <mxGeometry x="-1340" y="-2480" width="180" height="30" as="geometry" />
        </mxCell>
        <mxCell id="i0FzcZnS4csEfGver0WR-139" value="&lt;font style=&quot;font-size: 25px;&quot; face=&quot;Comic Sans MS&quot;&gt;شخص&lt;/font&gt;" style="text;html=1;align=center;verticalAlign=middle;whiteSpace=wrap;rounded=0;dashed=1;strokeColor=default;" vertex="1" parent="1">
          <mxGeometry x="-1440" y="-2085" width="110" height="30" as="geometry" />
        </mxCell>
        <mxCell id="i0FzcZnS4csEfGver0WR-140" value="" style="endArrow=classic;html=1;rounded=1;" edge="1" parent="1">
          <mxGeometry width="50" height="50" relative="1" as="geometry">
            <mxPoint x="-1340" y="-2090" as="sourcePoint" />
            <mxPoint x="-1310" y="-2130" as="targetPoint" />
          </mxGeometry>
        </mxCell>
        <mxCell id="i0FzcZnS4csEfGver0WR-141" value="&lt;font style=&quot;font-size: 25px;&quot; face=&quot;Comic Sans MS&quot;&gt;مريض&lt;/font&gt;" style="text;html=1;align=center;verticalAlign=middle;whiteSpace=wrap;rounded=0;dashed=1;strokeColor=default;" vertex="1" parent="1">
          <mxGeometry x="-1580" y="-1970" width="110" height="30" as="geometry" />
        </mxCell>
        <mxCell id="i0FzcZnS4csEfGver0WR-143" value="" style="endArrow=classic;html=1;rounded=1;exitX=0.905;exitY=1.074;exitDx=0;exitDy=0;exitPerimeter=0;" edge="1" parent="1" source="i0FzcZnS4csEfGver0WR-141">
          <mxGeometry width="50" height="50" relative="1" as="geometry">
            <mxPoint x="-1470" y="-1890" as="sourcePoint" />
            <mxPoint x="-1460" y="-1890" as="targetPoint" />
          </mxGeometry>
        </mxCell>
        <mxCell id="i0FzcZnS4csEfGver0WR-144" value="&lt;font style=&quot;font-size: 25px;&quot; face=&quot;Comic Sans MS&quot;&gt;دكتور&lt;/font&gt;" style="text;html=1;align=center;verticalAlign=middle;whiteSpace=wrap;rounded=0;dashed=1;strokeColor=default;" vertex="1" parent="1">
          <mxGeometry x="-1040" y="-1970" width="110" height="30" as="geometry" />
        </mxCell>
        <mxCell id="i0FzcZnS4csEfGver0WR-146" value="" style="endArrow=classic;html=1;rounded=1;exitX=0.103;exitY=1.12;exitDx=0;exitDy=0;exitPerimeter=0;" edge="1" parent="1" source="i0FzcZnS4csEfGver0WR-144">
          <mxGeometry width="50" height="50" relative="1" as="geometry">
            <mxPoint x="-1030" y="-1930" as="sourcePoint" />
            <mxPoint x="-1040" y="-1890" as="targetPoint" />
          </mxGeometry>
        </mxCell>
        <mxCell id="i0FzcZnS4csEfGver0WR-147" value="&lt;font style=&quot;font-size: 25px;&quot; face=&quot;Comic Sans MS&quot;&gt;موعد&lt;/font&gt;" style="text;html=1;align=center;verticalAlign=middle;whiteSpace=wrap;rounded=0;dashed=1;strokeColor=default;" vertex="1" parent="1">
          <mxGeometry x="-1630" y="-1560" width="110" height="30" as="geometry" />
        </mxCell>
        <mxCell id="i0FzcZnS4csEfGver0WR-148" value="" style="endArrow=classic;html=1;rounded=1;exitX=1;exitY=0.25;exitDx=0;exitDy=0;" edge="1" parent="1" source="i0FzcZnS4csEfGver0WR-147">
          <mxGeometry width="50" height="50" relative="1" as="geometry">
            <mxPoint x="-1510" y="-1550" as="sourcePoint" />
            <mxPoint x="-1320" y="-1580" as="targetPoint" />
          </mxGeometry>
        </mxCell>
        <mxCell id="i0FzcZnS4csEfGver0WR-149" value="&lt;font style=&quot;font-size: 25px;&quot; face=&quot;Comic Sans MS&quot;&gt;سجل طبي&lt;/font&gt;" style="text;html=1;align=center;verticalAlign=middle;whiteSpace=wrap;rounded=0;dashed=1;strokeColor=default;" vertex="1" parent="1">
          <mxGeometry x="-1200.98" y="-1360" width="110" height="30" as="geometry" />
        </mxCell>
        <mxCell id="i0FzcZnS4csEfGver0WR-150" value="" style="endArrow=classic;html=1;rounded=1;exitX=0.103;exitY=1.12;exitDx=0;exitDy=0;exitPerimeter=0;" edge="1" parent="1">
          <mxGeometry width="50" height="50" relative="1" as="geometry">
            <mxPoint x="-1190" y="-1330" as="sourcePoint" />
            <mxPoint x="-1210" y="-1284" as="targetPoint" />
          </mxGeometry>
        </mxCell>
        <mxCell id="i0FzcZnS4csEfGver0WR-151" value="&lt;font style=&quot;font-size: 25px;&quot; face=&quot;Comic Sans MS&quot;&gt;وصفة طبيه&lt;/font&gt;" style="text;html=1;align=center;verticalAlign=middle;whiteSpace=wrap;rounded=0;dashed=1;strokeColor=default;" vertex="1" parent="1">
          <mxGeometry x="-1410" y="-890" width="110" height="30" as="geometry" />
        </mxCell>
        <mxCell id="i0FzcZnS4csEfGver0WR-152" value="" style="endArrow=classic;html=1;rounded=1;exitX=0.867;exitY=1.088;exitDx=0;exitDy=0;exitPerimeter=0;" edge="1" parent="1" source="i0FzcZnS4csEfGver0WR-151">
          <mxGeometry width="50" height="50" relative="1" as="geometry">
            <mxPoint x="-1290" y="-840" as="sourcePoint" />
            <mxPoint x="-1300" y="-820" as="targetPoint" />
          </mxGeometry>
        </mxCell>
        <mxCell id="i0FzcZnS4csEfGver0WR-153" value="&lt;font style=&quot;font-size: 25px;&quot; face=&quot;Comic Sans MS&quot;&gt;المدفوعات&lt;/font&gt;" style="text;html=1;align=center;verticalAlign=middle;whiteSpace=wrap;rounded=0;dashed=1;strokeColor=default;" vertex="1" parent="1">
          <mxGeometry x="-890" y="-1650" width="110" height="30" as="geometry" />
        </mxCell>
        <mxCell id="i0FzcZnS4csEfGver0WR-155" value="" style="endArrow=classic;html=1;rounded=1;exitX=0.818;exitY=1;exitDx=0;exitDy=0;exitPerimeter=0;" edge="1" parent="1" source="i0FzcZnS4csEfGver0WR-153">
          <mxGeometry width="50" height="50" relative="1" as="geometry">
            <mxPoint x="-789" y="-1590" as="sourcePoint" />
            <mxPoint x="-770" y="-1570" as="targetPoint" />
          </mxGeometry>
        </mxCell>
      </root>
    </mxGraphModel>
  </diagram>
</mxfile>
